<svg xmlns="http://www.w3.org/2000/svg" viewBox="0 0 1000 1000" style="enable-background:new 0 0 1000 1000" xml:space="preserve">
  <path d="M499.9 215.1c-36.2 0-65.6 29.2-65.6 65.2 0 35.9 29.4 65.1 65.6 65.1 36.2 0 65.6-29.2 65.6-65.1 0-36-29.4-65.2-65.6-65.2zm0 170.3c-58.2 0-105.5-47-105.5-105.1 0-58 47.3-105.1 105.5-105.1 58.2 0 105.5 47 105.5 105.1 0 58-47.3 105.1-105.5 105.1zm0-281.7c-146.4 0-265.3 118.2-265.3 263.8 0 58.6 19.9 114.8 57.1 161.3 29.4 36.7 69.5 75.7 114.8 121.1 34.1 34.1 69.5 69.5 105.5 107.6 11.5 11.9 26.7 18.9 43.5 18.9 16.2 0 31.5-6.3 42.9-18.3 36.2-38.3 71.6-73.7 105.5-107.6 45.1-45.1 85.4-84.3 114.8-121.1 37.2-46.5 57.1-102.7 57.1-161.3 0-145.6-118.9-264.4-265.3-264.4h-.6zm186.1 404.5c-27.3 34.1-65.6 71.6-109.7 115.8-34.1 34.1-69.5 69.5-105.5 107.6-3.7 3.7-8.4 6.3-13.6 6.3-5.2 0-9.9-2.1-13.6-6.3-36.2-38.3-71.6-73.7-105.5-107.6-43.5-43.5-82.2-81.7-109.7-115.8-32-40.4-48.8-88.5-48.8-140.7 0-124.8 101.8-226.1 227.5-226.1s227.5 101.3 227.5 226.1c0 52.3-16.8 100.2-48.8 140.7h.2z" style="fill:#ff385c"/>
</svg>
